<mxfile host="app.diagrams.net" modified="2023-01-26T08:35:31.209Z" agent="5.0 (Macintosh; Intel Mac OS X 10_15_7) AppleWebKit/537.36 (KHTML, like Gecko) Chrome/109.0.0.0 Safari/537.36" etag="lf-Jmqrflf2RMgX54kMu" version="20.8.10" type="github">
  <diagram name="Page-1" id="822b0af5-4adb-64df-f703-e8dfc1f81529">
    <mxGraphModel dx="1193" dy="693" grid="1" gridSize="10" guides="1" tooltips="1" connect="1" arrows="1" fold="1" page="1" pageScale="1" pageWidth="1100" pageHeight="850" background="none" math="0" shadow="0">
      <root>
        <mxCell id="0" />
        <mxCell id="1" parent="0" />
        <mxCell id="NdZSr1G4noLOjjENrpv1-4" value="" style="edgeStyle=orthogonalEdgeStyle;rounded=0;orthogonalLoop=1;jettySize=auto;html=1;endArrow=none;endFill=0;" edge="1" parent="1" source="7d933b09d9755ecc-6" target="7d933b09d9755ecc-9">
          <mxGeometry relative="1" as="geometry" />
        </mxCell>
        <mxCell id="7d933b09d9755ecc-6" value="HR" style="verticalLabelPosition=bottom;aspect=fixed;html=1;verticalAlign=top;strokeColor=none;shape=mxgraph.citrix.users;rounded=0;shadow=0;comic=0;fontFamily=Verdana;" parent="1" vertex="1">
          <mxGeometry x="305" y="330" width="64.5" height="55" as="geometry" />
        </mxCell>
        <mxCell id="7d933b09d9755ecc-9" value="Successfactors" style="verticalLabelPosition=bottom;aspect=fixed;html=1;verticalAlign=top;strokeColor=none;shape=mxgraph.citrix.tower_server;rounded=0;shadow=0;comic=0;fontFamily=Verdana;" parent="1" vertex="1">
          <mxGeometry x="305" y="493" width="65" height="85" as="geometry" />
        </mxCell>
        <mxCell id="NdZSr1G4noLOjjENrpv1-19" style="edgeStyle=none;rounded=0;orthogonalLoop=1;jettySize=auto;html=1;endArrow=none;endFill=0;" edge="1" parent="1" source="NdZSr1G4noLOjjENrpv1-6" target="NdZSr1G4noLOjjENrpv1-18">
          <mxGeometry relative="1" as="geometry" />
        </mxCell>
        <mxCell id="NdZSr1G4noLOjjENrpv1-6" value="Azure AD" style="verticalLabelPosition=bottom;aspect=fixed;html=1;verticalAlign=top;strokeColor=none;shape=mxgraph.citrix.tower_server;rounded=0;shadow=0;comic=0;fontFamily=Verdana;" vertex="1" parent="1">
          <mxGeometry x="370" y="70" width="65" height="85" as="geometry" />
        </mxCell>
        <mxCell id="NdZSr1G4noLOjjENrpv1-12" style="edgeStyle=none;rounded=0;orthogonalLoop=1;jettySize=auto;html=1;entryX=1.069;entryY=0.619;entryDx=0;entryDy=0;entryPerimeter=0;endArrow=none;endFill=0;" edge="1" parent="1" source="NdZSr1G4noLOjjENrpv1-7" target="NdZSr1G4noLOjjENrpv1-6">
          <mxGeometry relative="1" as="geometry" />
        </mxCell>
        <mxCell id="NdZSr1G4noLOjjENrpv1-13" style="edgeStyle=none;rounded=0;orthogonalLoop=1;jettySize=auto;html=1;entryX=0.069;entryY=0.487;entryDx=0;entryDy=0;entryPerimeter=0;endArrow=none;endFill=0;" edge="1" parent="1" source="NdZSr1G4noLOjjENrpv1-7" target="NdZSr1G4noLOjjENrpv1-9">
          <mxGeometry relative="1" as="geometry" />
        </mxCell>
        <mxCell id="NdZSr1G4noLOjjENrpv1-14" style="edgeStyle=none;rounded=0;orthogonalLoop=1;jettySize=auto;html=1;endArrow=none;endFill=0;" edge="1" parent="1" source="NdZSr1G4noLOjjENrpv1-7" target="NdZSr1G4noLOjjENrpv1-8">
          <mxGeometry relative="1" as="geometry" />
        </mxCell>
        <mxCell id="NdZSr1G4noLOjjENrpv1-16" style="edgeStyle=none;rounded=0;orthogonalLoop=1;jettySize=auto;html=1;endArrow=none;endFill=0;" edge="1" parent="1" source="NdZSr1G4noLOjjENrpv1-7" target="NdZSr1G4noLOjjENrpv1-10">
          <mxGeometry relative="1" as="geometry" />
        </mxCell>
        <mxCell id="NdZSr1G4noLOjjENrpv1-7" value="Identity Manager" style="verticalLabelPosition=bottom;aspect=fixed;html=1;verticalAlign=top;strokeColor=none;shape=mxgraph.citrix.tower_server;rounded=0;shadow=0;comic=0;fontFamily=Verdana;" vertex="1" parent="1">
          <mxGeometry x="680" y="80" width="65" height="85" as="geometry" />
        </mxCell>
        <mxCell id="NdZSr1G4noLOjjENrpv1-15" style="edgeStyle=none;rounded=0;orthogonalLoop=1;jettySize=auto;html=1;entryX=0.973;entryY=0.26;entryDx=0;entryDy=0;entryPerimeter=0;endArrow=none;endFill=0;" edge="1" parent="1" source="NdZSr1G4noLOjjENrpv1-8" target="7d933b09d9755ecc-9">
          <mxGeometry relative="1" as="geometry" />
        </mxCell>
        <mxCell id="NdZSr1G4noLOjjENrpv1-8" value="Starling Connect" style="verticalLabelPosition=bottom;aspect=fixed;html=1;verticalAlign=top;strokeColor=none;shape=mxgraph.citrix.tower_server;rounded=0;shadow=0;comic=0;fontFamily=Verdana;" vertex="1" parent="1">
          <mxGeometry x="560" y="195" width="65" height="85" as="geometry" />
        </mxCell>
        <mxCell id="NdZSr1G4noLOjjENrpv1-9" value="Freshservice" style="verticalLabelPosition=bottom;aspect=fixed;html=1;verticalAlign=top;strokeColor=none;shape=mxgraph.citrix.tower_server;rounded=0;shadow=0;comic=0;fontFamily=Verdana;" vertex="1" parent="1">
          <mxGeometry x="960" y="80" width="65" height="85" as="geometry" />
        </mxCell>
        <mxCell id="NdZSr1G4noLOjjENrpv1-10" value="Legacy APP" style="verticalLabelPosition=bottom;aspect=fixed;html=1;verticalAlign=top;strokeColor=none;shape=mxgraph.citrix.tower_server;rounded=0;shadow=0;comic=0;fontFamily=Verdana;" vertex="1" parent="1">
          <mxGeometry x="680" y="500" width="65" height="85" as="geometry" />
        </mxCell>
        <mxCell id="NdZSr1G4noLOjjENrpv1-18" value="Onprem AD" style="verticalLabelPosition=bottom;aspect=fixed;html=1;verticalAlign=top;strokeColor=none;shape=mxgraph.citrix.tower_server;rounded=0;shadow=0;comic=0;fontFamily=Verdana;" vertex="1" parent="1">
          <mxGeometry x="100" y="315" width="65" height="85" as="geometry" />
        </mxCell>
      </root>
    </mxGraphModel>
  </diagram>
</mxfile>
